<svg width="200" viewBox="0 0 114 95" fill="none" xmlns="http://www.w3.org/2000/svg">
<path d="M81.8199 77.93L72.9599 86.4C67.8399 91.3 63.7999 93.4 56.7399 94.81C49.6199 93.36 45.6099 91.25 40.4599 86.3L36.2399 82.3L33.4599 79.64L22.8199 69.4L13.9899 60.86C12.0999 59.02 10.2699 57.31 8.48987 55.35C5.41298 51.9483 3.01946 47.9863 1.43987 43.68C-2.01013 34.32 0.749866 23.04 9.60987 17.76C11.7273 12.2459 15.558 7.55654 20.5386 4.3813C25.5193 1.20606 31.3872 -0.28756 37.2799 0.12001C45.1099 0.71001 52.4299 4.39001 56.7799 11.26C58.9147 8.01945 61.7746 5.32036 65.1331 3.3764C68.4916 1.43245 72.2566 0.297025 76.1299 0.0600123C82.0277 -0.359051 87.9054 1.1139 92.9086 4.26472C97.9118 7.41555 101.78 12.08 103.95 17.58C111.18 21.79 114.43 30.39 113.48 38.53C112.35 46.53 108.12 52.75 102.48 58.22L97.9999 62.58L81.8199 77.93ZM74.5299 44.6C75.5014 43.6397 76.5264 42.7349 77.5999 41.89C81.0599 39.23 85.2499 38.56 89.0099 41.12C90.1682 42.0056 91.0664 43.187 91.6099 44.54L95.1399 40.98C97.0084 39.0694 98.4472 36.7817 99.3599 34.27C100.836 30.2277 101.063 25.8349 100.011 21.6621C98.9585 17.4893 96.6762 13.7292 93.4599 10.87C89.6365 7.41064 84.7712 5.32099 79.6299 4.93001C71.1399 4.29001 62.5199 8.72001 59.3799 16.87C59.2209 17.5659 58.9721 18.2382 58.6399 18.87C58.3841 19.218 58.0356 19.487 57.6342 19.6461C57.2327 19.8053 56.7946 19.8482 56.3699 19.77C54.3699 19.37 54.4799 17.49 53.5899 15.61C49.9999 8.13001 41.7699 4.35002 33.7199 4.97002C27.8707 5.34842 22.4083 8.02365 18.5233 12.4126C14.6383 16.8015 12.6457 22.5482 12.9799 28.4C13.3599 34 15.7699 38.33 19.7099 42.16L21.8799 44.27C22.7034 42.4814 24.1368 41.0443 25.9233 40.2162C27.7097 39.388 29.7327 39.2227 31.6299 39.75C33.9275 40.3715 36.0166 41.5974 37.6799 43.3L42.6799 48.19L48.2399 53.62L53.8199 59.18C54.9871 60.4891 55.9942 61.9326 56.8199 63.48C58.9399 59.31 61.6599 56.92 64.9599 53.75L74.5299 44.6ZM33.7699 46.52C32.0199 44.82 29.0999 43.37 27.1399 45.3C26.8348 45.6101 26.5953 45.9785 26.4357 46.3832C26.2761 46.7879 26.1996 47.2206 26.2108 47.6555C26.222 48.0904 26.3206 48.5185 26.5009 48.9145C26.6811 49.3104 26.9393 49.666 27.2599 49.96L31.0999 53.72L36.6499 59.16C37.4398 59.8517 38.1847 60.5932 38.8799 61.38C39.3034 61.8638 39.5188 62.4952 39.4793 63.137C39.4398 63.7787 39.1486 64.379 38.669 64.8072C38.1894 65.2354 37.5601 65.4571 36.918 65.4239C36.2759 65.3907 35.6728 65.1054 35.2399 64.63L33.4499 62.9L27.1299 56.72L15.2099 44.79C13.759 43.3023 12.4993 41.6395 11.4599 39.84C8.92615 35.5662 7.73791 30.6286 8.04987 25.67C3.62987 31.45 4.36987 38.33 7.14987 44.46C8.76795 47.9123 11.0204 51.0297 13.7899 53.65L19.0099 58.75L27.3499 66.8L31.3499 70.69L44.8299 83.62C47.4778 86.1727 50.7023 88.0491 54.2299 89.09L54.1599 72.39C54.094 68.5461 52.5126 64.8837 49.7599 62.2L44.2299 56.72L37.7299 50.4L33.7699 46.52ZM80.4299 45.97L76.0599 50.02L64.1299 61.54C62.5976 63.0388 61.3788 64.8274 60.5444 66.8017C59.7101 68.7761 59.2768 70.8966 59.2699 73.04L59.2099 89.12C62.4983 88.2526 65.517 86.5748 67.9899 84.24L73.6999 78.81L86.1299 67.01L92.1299 61.32L95.5299 58.05C97.6199 56.05 99.6699 54.12 101.63 51.97C105.76 47.46 108.83 41.26 108.77 35.07C108.67 31.6616 107.525 28.3663 105.49 25.63C105.843 30.8082 104.582 35.9686 101.88 40.4C100.884 42.0754 99.6923 43.6263 98.3299 45.02L92.3299 51.02L87.3299 55.84L83.1899 59.84L77.8499 64.91C77.3534 65.2938 76.726 65.467 76.1029 65.3922C75.4799 65.3174 74.9113 65.0005 74.5199 64.51C72.6599 62.36 75.6799 60.26 77.0899 58.88L81.2799 54.8L85.9999 50.16C86.3414 49.8611 86.6195 49.4968 86.8176 49.0884C87.0157 48.6801 87.1298 48.2361 87.1531 47.7829C87.1764 47.3297 87.1085 46.8763 86.9533 46.4498C86.7982 46.0233 86.559 45.6323 86.2499 45.3C84.5399 43.58 81.8999 44.6 80.4299 45.97Z" fill="#D6AEA2"/>
</svg>
